<svg width="114" height="75" viewBox="0 0 114 75" fill="none" xmlns="http://www.w3.org/2000/svg">
<path fill-rule="evenodd" clip-rule="evenodd" d="M85.608 36.8676C85.4523 37.2933 85.0731 37.6985 84.4987 38.0527C83.9243 38.4069 83.1696 38.7011 82.2912 38.9131C80.5223 39.4009 78.9744 39.6448 77.4082 39.8887C74.073 40.3804 70.5627 40.8721 66.8497 41.4425C62.9341 42.0129 59.4238 42.5833 56.2913 42.9963C52.3849 43.5667 48.6719 44.0584 45.1432 44.6288C42.4884 45.1139 39.9947 45.7461 37.7265 46.5091C35.617 47.3251 33.7761 48.2594 32.2538 49.2863C30.6876 50.4271 29.7018 51.8983 29.7018 53.6134C29.7018 57.0475 31.655 59.6595 35.5706 61.292C39.4771 63.0111 46.7187 63.8253 57.4522 63.8253C68.3976 63.8253 75.8235 62.9284 79.7483 61.1307C83.6456 59.333 85.5988 56.8037 85.5988 53.5387V36.8676H85.608ZM57.4614 0.67749C76.625 0.67749 90.6937 2.23131 99.6767 5.41761C108.669 8.52524 113.165 12.5219 113.165 17.2581V57.6179C113.165 59.2504 112.391 61.0481 111.027 63.0071C109.645 64.974 106.918 66.7678 102.616 68.3963C98.5158 70.0367 92.8496 71.4253 85.6172 72.4874C78.3848 73.5495 69.0056 74.1199 57.4706 74.1199C45.954 74.1199 36.5565 73.5495 29.3332 72.4874C22.11 71.4253 16.4346 70.0367 12.3347 68.3963C8.52071 66.9288 5.63142 65.0757 3.93221 63.0071C2.55022 61.0521 1.76709 59.2544 1.76709 57.6219V51.1706C1.76709 47.7365 3.91379 44.5502 8.21639 41.769C12.519 38.9131 18.5721 36.9542 26.3942 35.7268C30.3006 35.1565 34.7967 34.5861 39.8732 33.8505C44.959 33.1109 49.6393 32.3753 54.3381 31.7263C59.0369 31.0693 63.1368 30.4124 66.647 29.8381C68.7654 29.4762 70.9169 29.1508 73.0963 28.8625L76.6158 28.1269C77.9978 27.8004 79.3522 27.3087 80.7249 26.6557C82.0885 26.0066 83.2586 25.271 84.2444 24.4528C85.286 23.5668 85.8227 22.5883 85.8107 21.597V18.981C85.8251 18.0223 85.3537 17.0736 84.4287 16.1999C83.6548 15.2165 82.0885 14.3196 79.9418 13.5053C77.7951 12.6871 74.8561 12.0341 71.3458 11.5385C67.8263 11.0546 63.146 10.8068 57.8576 10.8068C46.9122 10.8068 39.6798 11.7115 35.7733 13.584C32.4565 15.2204 30.5033 17.262 30.1164 19.5475C30.1164 20.0392 29.1398 20.3657 27.9605 20.3657L4.12569 20.5309C3.55952 20.532 3.01529 20.4375 2.6115 20.268C2.20771 20.0986 1.97707 19.8679 1.96978 19.6262V17.2659C1.96978 14.9726 2.9556 12.8484 5.1023 10.8068C7.25821 8.76126 10.5842 7.0501 15.0711 5.57496C19.5672 4.10769 25.436 2.8843 32.4658 2.06609C39.3112 1.08266 47.7137 0.67749 57.4798 0.67749H57.4614Z" fill="#0A3871"/>
</svg>
